<svg width="286" height="268" viewBox="0 0 286 268" fill="none" xmlns="http://www.w3.org/2000/svg">
<path fill-rule="evenodd" clip-rule="evenodd" d="M127.253 0.352001C126.129 0.513856 123.453 0.836825 121.307 1.06996C115.886 1.65873 107.228 3.428 101.053 5.20879C87.061 9.24404 71.0978 17.319 59.1144 26.423C43.6269 38.1895 30.0868 54.9776 21.8036 72.6833C9.9116 98.1036 6.7985 126.313 12.8233 154.061C13.8631 158.849 16.0527 166.502 16.3036 166.223C16.3675 166.152 18.3033 159.411 20.6044 151.244C22.9055 143.077 24.8926 136.276 25.0196 136.13C25.1467 135.985 76.5053 123.24 139.149 107.809C201.793 92.3774 253.329 79.6672 253.673 79.5644C254.488 79.3201 254.286 78.7518 250.976 71.9817C249.551 69.0672 248.439 66.6297 248.504 66.5647C248.569 66.4994 254.345 65.0457 261.338 63.3339C268.332 61.6218 274.13 60.1462 274.222 60.0545C274.361 59.9156 285.093 22.5808 285.78 19.8441L286 18.9695L279.598 20.5765C276.077 21.4604 273.085 22.3633 272.949 22.5827C272.813 22.8021 271.31 27.8723 269.609 33.8506L266.517 44.7194L150.928 73.203C87.3542 88.8689 35.2616 101.609 35.1672 101.514C34.8673 101.215 46.701 60.5222 47.1295 60.3786C47.3551 60.3028 83.1849 51.3989 126.752 40.5917C170.319 29.7849 205.888 20.8178 205.794 20.6653C205.492 20.1738 197.621 15.6318 193.46 13.547C179.409 6.50734 166.158 2.65993 149.25 0.709865C142.579 -0.0593208 131.378 -0.241594 127.253 0.352001ZM255.192 83.8658C254.986 84.5805 252.594 92.9331 249.875 102.427C247.157 111.921 244.827 119.815 244.698 119.968C244.569 120.121 193.972 132.786 132.259 148.111C70.547 163.437 19.9934 176.038 19.918 176.114C19.6147 176.417 25.6105 187.982 28.4951 192.658C31.7041 197.86 35.6392 203.406 36.1145 203.396C36.2665 203.392 80.9578 192.313 135.429 178.773C189.9 165.235 234.534 154.209 234.616 154.273C234.698 154.336 232.113 163.719 228.871 175.124L222.976 195.86L114.018 222.712L5.06041 249.564L2.44789 258.681C1.01118 263.695 -0.0880827 267.874 0.00556681 267.968C0.0992163 268.061 0.714999 267.945 1.37426 267.709C2.03352 267.474 22.7427 262.275 47.3952 256.157L92.2176 245.033L97.7504 246.821C130.906 257.538 167.416 254.06 197.729 237.296C223.147 223.238 242.245 202.048 253.713 175.173C265.235 148.174 266.424 114.318 256.836 86.2788L255.566 82.5665L255.192 83.8658Z" fill="#0B317A"/>
</svg>
